<svg xmlns="http://www.w3.org/2000/svg" viewBox="0 0 20.35 24"><path d="M22.18,12.74v-9A3.72,3.72,0,0,0,18.44,0H5.54A3.73,3.73,0,0,0,1.82,3.72V15.81h0v4.48h0A3.72,3.72,0,0,0,5.56,24h12.9a3.73,3.73,0,0,0,3.72-3.72V12.74Zm-18.49-9h0A1.85,1.85,0,0,1,5.56,1.87h12.9a1.85,1.85,0,0,1,1.85,1.85V15.81h0a1.85,1.85,0,0,1-1.87,1.84H3.69V3.71ZM20.31,20.29a1.85,1.85,0,0,1-1.87,1.84H5.54a1.85,1.85,0,0,1-1.85-1.85v-.76H18.46A3.64,3.64,0,0,0,20.31,19v1.28Z" transform="translate(-1.82 0)"/><path d="M16.55,6.88H7.45a.93.93,0,1,0,0,1.86h9.1a.93.93,0,0,0,0-1.86Z" transform="translate(-1.82 0)"/></svg>