<?xml version="1.0" encoding="utf-8"?>

<svg version="1.1" id="Слой_1" xmlns="http://www.w3.org/2000/svg" xmlns:xlink="http://www.w3.org/1999/xlink" x="0px" y="0px"
	 viewBox="0 0 24 24" style="enable-background:new 0 0 24 24;" xml:space="preserve">
<style type="text/css">
	.st0{fill:url(#SVGID_1_);}
	.st1{fill:url(#SVGID_2_);}
	.st2{fill:#FFFFFF;}
</style>
<radialGradient id="SVGID_1_" cx="-3595.9548" cy="-646.3243" r="11.9977" gradientTransform="matrix(0 -1.982 -1.8439 0 -1185.3823 -7101.269)" gradientUnits="userSpaceOnUse">
	<stop  offset="0" style="stop-color:#FFDD55"/>
	<stop  offset="0.1" style="stop-color:#FFDD55"/>
	<stop  offset="0.5" style="stop-color:#FF543E"/>
	<stop  offset="1" style="stop-color:#C837AB"/>
</radialGradient>
<path class="st0" d="M12,0C7,0,5.5,0,5.2,0c-1,0.1-1.7,0.2-2.4,0.6c-0.5,0.3-1,0.6-1.4,1C0.7,2.4,0.3,3.4,0.1,4.6C0,5.1,0,5.2,0,8.1
	c0,1,0,2.2,0,3.9c0,5,0,6.5,0,6.8c0.1,1,0.2,1.6,0.6,2.3c0.6,1.3,1.8,2.3,3.3,2.7c0.5,0.1,1,0.2,1.7,0.2c0.3,0,3.3,0,6.4,0
	s6.1,0,6.4,0c0.8,0,1.3-0.1,1.8-0.2c1.4-0.4,2.6-1.3,3.3-2.7c0.3-0.7,0.5-1.3,0.6-2.3c0-0.2,0-3.5,0-6.8c0-3.3,0-6.6,0-6.8
	c-0.1-1-0.2-1.6-0.6-2.3c-0.3-0.6-0.6-1-1-1.4c-0.8-0.8-1.8-1.2-2.9-1.4C18.9,0,18.8,0,15.9,0H12z"/>
<radialGradient id="SVGID_2_" cx="-521.0692" cy="1827.115" r="11.9977" gradientTransform="matrix(0.1739 0.8687 3.5818 -0.7172 -6457.7456 1764.762)" gradientUnits="userSpaceOnUse">
	<stop  offset="0" style="stop-color:#3771C8"/>
	<stop  offset="0.128" style="stop-color:#3771C8"/>
	<stop  offset="1" style="stop-color:#6600FF;stop-opacity:0"/>
</radialGradient>
<path class="st1" d="M12,0C7,0,5.5,0,5.2,0c-1,0.1-1.7,0.2-2.4,0.6c-0.5,0.3-1,0.6-1.4,1C0.7,2.4,0.3,3.4,0.1,4.6C0,5.1,0,5.2,0,8.1
	c0,1,0,2.2,0,3.9c0,5,0,6.5,0,6.8c0.1,1,0.2,1.6,0.6,2.3c0.6,1.3,1.8,2.3,3.3,2.7c0.5,0.1,1,0.2,1.7,0.2c0.3,0,3.3,0,6.4,0
	s6.1,0,6.4,0c0.8,0,1.3-0.1,1.8-0.2c1.4-0.4,2.6-1.3,3.3-2.7c0.3-0.7,0.5-1.3,0.6-2.3c0-0.2,0-3.5,0-6.8c0-3.3,0-6.6,0-6.8
	c-0.1-1-0.2-1.6-0.6-2.3c-0.3-0.6-0.6-1-1-1.4c-0.8-0.8-1.8-1.2-2.9-1.4C18.9,0,18.8,0,15.9,0H12z"/>
<path class="st2" d="M12,3.1c-2.4,0-2.7,0-3.7,0.1c-0.9,0-1.6,0.2-2.2,0.4c-0.6,0.2-1.1,0.5-1.6,1c-0.5,0.5-0.8,1-1,1.6
	C3.4,6.8,3.2,7.4,3.2,8.3c0,0.9-0.1,1.2-0.1,3.7s0,2.7,0.1,3.7c0,0.9,0.2,1.6,0.4,2.2c0.2,0.6,0.5,1.1,1,1.6c0.5,0.5,1,0.8,1.6,1
	c0.6,0.2,1.2,0.4,2.2,0.4c0.9,0,1.2,0.1,3.7,0.1c2.4,0,2.7,0,3.7-0.1c0.9,0,1.6-0.2,2.2-0.4c0.6-0.2,1.1-0.5,1.6-1
	c0.5-0.5,0.8-1,1-1.6c0.2-0.6,0.4-1.2,0.4-2.2c0-0.9,0.1-1.2,0.1-3.7s0-2.7-0.1-3.7c0-0.9-0.2-1.6-0.4-2.2c-0.2-0.6-0.5-1.1-1-1.6
	c-0.5-0.5-1-0.8-1.6-1c-0.6-0.2-1.2-0.4-2.2-0.4C14.7,3.1,14.4,3.1,12,3.1L12,3.1z M11.2,4.7c0.2,0,0.5,0,0.8,0c2.4,0,2.6,0,3.6,0.1
	c0.9,0,1.3,0.2,1.6,0.3c0.4,0.2,0.7,0.4,1,0.7c0.3,0.3,0.5,0.6,0.7,1c0.1,0.3,0.3,0.8,0.3,1.6c0,0.9,0.1,1.2,0.1,3.6s0,2.6-0.1,3.6
	c0,0.9-0.2,1.3-0.3,1.6c-0.2,0.4-0.4,0.7-0.7,1c-0.3,0.3-0.6,0.5-1,0.7c-0.3,0.1-0.8,0.3-1.6,0.3c-0.9,0-1.2,0.1-3.6,0.1
	c-2.4,0-2.6,0-3.6-0.1c-0.9,0-1.3-0.2-1.6-0.3c-0.4-0.2-0.7-0.4-1-0.7c-0.3-0.3-0.5-0.6-0.7-1c-0.1-0.3-0.3-0.8-0.3-1.6
	c0-0.9-0.1-1.2-0.1-3.6s0-2.6,0.1-3.6c0-0.9,0.2-1.3,0.3-1.6c0.2-0.4,0.4-0.7,0.7-1c0.3-0.3,0.6-0.5,1-0.7C7.1,5,7.6,4.8,8.4,4.8
	C9.2,4.7,9.6,4.7,11.2,4.7L11.2,4.7z M16.7,6.2c-0.6,0-1.1,0.5-1.1,1.1c0,0.6,0.5,1.1,1.1,1.1c0.6,0,1.1-0.5,1.1-1.1
	S17.3,6.2,16.7,6.2L16.7,6.2z M12,7.4c-2.5,0-4.5,2-4.5,4.5s2,4.5,4.5,4.5c2.5,0,4.5-2,4.5-4.5S14.5,7.4,12,7.4L12,7.4z M12,9
	c1.6,0,3,1.3,3,3c0,1.6-1.3,3-3,3c-1.6,0-3-1.3-3-3C9,10.4,10.4,9,12,9z"/>
</svg>
