<svg xmlns="http://www.w3.org/2000/svg" viewBox="0 0 16.92968 24"><path d="M12.00024,24a1.98777,1.98777,0,0,1-1.73562-1.01963L4.60131,12.79386A8.488,8.488,0,0,1,3.53516,8.68057V8.47439A8.41344,8.41344,0,0,1,7.54365,1.27674h0A8.4646,8.4646,0,0,1,20.46484,8.47439v.20618a8.48755,8.48755,0,0,1-1.06566,4.11329L13.73587,22.97939A1.98729,1.98729,0,0,1,12.00024,24ZM8.531,2.87132A6.54895,6.54895,0,0,0,5.41085,8.47439v.20618a6.60648,6.60648,0,0,0,.8301,3.20238l5.66282,10.18553c.01665.02939.17581.03037.19344-.001l5.66233-10.18455a6.60156,6.60156,0,0,0,.83059-3.20238V8.47439A6.58989,6.58989,0,0,0,8.531,2.87132Z" transform="translate(-3.53516)"/><circle cx="8.46517" cy="8.48623" r="1.96148"/></svg>