<svg xmlns="http://www.w3.org/2000/svg" viewBox="0 0 23.99902 24"><path d="M11.99951,24A12,12,0,1,1,23.999,12,12.01315,12.01315,0,0,1,11.99951,24Zm0-22.12278A10.12327,10.12327,0,1,0,22.12278,12,10.13389,10.13389,0,0,0,11.99951,1.87722Z" fill="#010101"/><path d="M14.25391,11.17266H9.74463a1.0371,1.0371,0,0,1-1.03711-1.03711V8.46661A1.03714,1.03714,0,0,1,9.74463,7.4295h4.50928a1.03944,1.03944,0,0,1,.91449.54669.93471.93471,0,0,0,1.65637-.86633,2.90968,2.90968,0,0,0-2.57086-1.55048H12.93506V4.692a.93506.93506,0,0,0-1.87012,0v.86743H9.74463A2.90727,2.90727,0,0,0,6.8374,8.46661v1.66845a2.90722,2.90722,0,0,0,2.90723,2.90723h4.51025A1.03714,1.03714,0,0,1,15.292,14.0794v1.45312a1.04113,1.04113,0,0,1-1.03808,1.03809H9.74463a1.02953,1.02953,0,0,1-.91412-.55676.92235.92235,0,0,0-.83063-.49732l-.017.00025A.93185.93185,0,0,0,7.16132,16.866a2.91039,2.91039,0,0,0,2.58331,1.57379h1.32031v.86743a.93506.93506,0,0,0,1.87012,0v-.86743h1.31982a2.90621,2.90621,0,0,0,2.90625-2.90625V14.07989A2.90726,2.90726,0,0,0,14.25391,11.17266Z" fill="#010101"/></svg>