<svg xmlns="http://www.w3.org/2000/svg" viewBox="0 0 24 22.29956"><path d="M22.10046.85021H1.89905A1.958,1.958,0,0,0,0,2.85784V5.16106A1.965,1.965,0,0,0,1.70428,7.14843V20.23351a2.91992,2.91992,0,0,0,2.91681,2.91626H19.70087a2.91981,2.91981,0,0,0,2.91632-2.91626V7.08422A1.99021,1.99021,0,0,0,24,5.16106V2.85784A1.95773,1.95773,0,0,0,22.10046.85021ZM1.87408,2.85784a.19019.19019,0,0,1,.04456-.13354L22.075,2.71838a.17738.17738,0,0,1,.05188.13946V5.16106c0,.08905-.042.13361-.02643.1341H1.921a.174.174,0,0,1-.04694-.1341Zm18.87,17.37567a1.04411,1.04411,0,0,1-1.04321,1.04315H4.62109a1.044,1.044,0,0,1-1.04272-1.04315V7.16924H20.74408Z" transform="translate(0 -0.85021)" fill="#010101"/><rect x="12.8769" y="15.08739" width="5.43873" height="1.87008" rx="0.93504" fill="#010101"/></svg>