<svg xmlns="http://www.w3.org/2000/svg" viewBox="0 0 24 24"><path d="M17.3,24H6.7A6.71,6.71,0,0,1,0,17.3V6.7A6.71,6.71,0,0,1,6.7,0H17.3A6.71,6.71,0,0,1,24,6.7V17.3A6.71,6.71,0,0,1,17.3,24ZM6.7,1.87A4.84,4.84,0,0,0,1.87,6.7V17.3A4.84,4.84,0,0,0,6.7,22.13H17.3a4.84,4.84,0,0,0,4.83-4.83V6.7A4.84,4.84,0,0,0,17.3,1.87Z"/><path d="M16.29,7.23,5.55,11.89a.35.35,0,0,0,.06.66l2.44.55A1.12,1.12,0,0,0,8.89,13L14.2,9.76l-3.51,3.81a.59.59,0,0,0,.09.89L14.47,17A1,1,0,0,0,16,16.37L17.29,8A.73.73,0,0,0,16.29,7.23Z"/></svg>