<svg xmlns="http://www.w3.org/2000/svg" xmlns:xlink="http://www.w3.org/1999/xlink" viewBox="0 0 24 24"><defs><linearGradient id="a" x1="-3033.951" y1="1561.463" x2="-3033.951" y2="1561.43918" gradientTransform="matrix(1000, 0, 0, -1000, 3033963, 1561463)" gradientUnits="userSpaceOnUse"><stop offset="0" stop-color="#2aabee"/><stop offset="1" stop-color="#229ed9"/></linearGradient></defs><circle cx="12" cy="12" r="12" fill="url(#a)"/><path d="M5.43188,11.87333Q10.67926,9.58714,12.43,8.85893c3.33253-1.38611,4.025-1.62689,4.47634-1.63485a.78926.78926,0,0,1,.465.13952.50551.50551,0,0,1,.17079.325,2.11614,2.11614,0,0,1,.02007.4724c-.18059,1.89748-.962,6.50217-1.35955,8.62739-.16821.89925-.49943,1.20077-.82009,1.23028-.69686.06412-1.226-.46054-1.901-.903-1.05616-.69233-1.65282-1.1233-2.678-1.79888-1.18477-.78075-.41673-1.20986.25847-1.91115.1767-.18354,3.24709-2.97629,3.30652-3.22964a.24511.24511,0,0,0-.05584-.21216.27647.27647,0,0,0-.24845-.02408q-.15889.03606-5.06167,3.34558a2.27823,2.27823,0,0,1-1.30135.48069,8.56442,8.56442,0,0,1-1.86535-.44142c-.7515-.24429-1.34878-.37344-1.29677-.78831Q4.5798,12.21218,5.43188,11.87333Z" fill="#fff" fill-rule="evenodd"/></svg>