<svg xmlns="http://www.w3.org/2000/svg" viewBox="0 0 24 16.80388"><path d="M23.50567,6.22737a3.007,3.007,0,0,0-2.11531-2.11531C19.51227,3.59806,12,3.59806,12,3.59806s-7.51232,0-9.39041.49423A3.06869,3.06869,0,0,0,.49423,6.22737,31.6841,31.6841,0,0,0,0,12a31.56672,31.56672,0,0,0,.49423,5.77263,3.007,3.007,0,0,0,2.11531,2.11531c1.89785.514,9.39041.514,9.39041.514s7.51232,0,9.39041-.49423a3.007,3.007,0,0,0,2.11531-2.11531,31.6841,31.6841,0,0,0,.49423-5.77263,30.08479,30.08479,0,0,0-.49423-5.7924Z" transform="translate(0 -3.59806)" fill="red"/><path d="M9.60787,8.402v7.196L15.855,12Z" transform="translate(0 -3.59806)" fill="#fff"/></svg>